<svg class="fash--apollo-user cart-links__link-account--icon vib-center" height="16px" version="1.1" xmlns="http://www.w3.org/2000/svg" xmlns:xlink="http://www.w3.org/1999/xlink" x="0px" y="0px" viewBox="0 0 20 20.2" xml:space="preserve">
       <g class="hover-fill" fill="black">
         <path d="M10,9c1.8,0,3.3-1.5,3.3-3.3S11.8,2.3,10,2.3S6.7,3.8,6.7,5.6S8.2,9,10,9z M10,11.2c-3.1,0-5.6-2.5-5.6-5.6
          S6.9,0.1,10,0.1s5.6,2.5,5.6,5.6S13.1,11.2,10,11.2z M17.8,20.1v-3.3c0-1.2-1-2.2-2.2-2.2H4.4c-1.2,0-2.2,1-2.2,2.2v3.3H0v-3.3
          c0-2.5,2-4.4,4.4-4.4h11.1c2.5,0,4.4,2,4.4,4.4v3.3H17.8z"></path>
       </g>
       <style>.cart-links__link-account .fash--apollo-user:hover .hover-fill { fill: var(--cart-links);}</style>
    </svg>