<svg class="fash--icon-theme-security " version="1.1" xmlns="http://www.w3.org/2000/svg" xmlns:xlink="http://www.w3.org/1999/xlink" x="0px" y="0px" viewBox="0 0 17 20" height="20" xml:space="preserve">
      <g class="hover-fill" fill="#ffffff">
        <path d="M8.38410364,20 C6.04035364,19.4270833 4.10024947,18.0989583 2.56379114,16.015625 C1.02733281,13.9322917 0.259103641,11.6232639 0.259103641,9.08854167 L0.259103641,3.125 L8.38410364,0 L16.5091036,3.125 L16.5091036,9.08854167 C16.5091036,11.6232639 15.7408745,13.9322917 14.2044161,16.015625 C12.6679578,18.0989583 10.7278536,19.4270833 8.38410364,20 Z M8.38410364,18.046875 C10.0681314,17.5260417 11.4700411,16.5234375 12.5898328,15.0390625 C13.7096245,13.5546875 14.3650064,11.875 14.5559786,10 L8.38410364,10 L8.38410364,2.00520833 L2.13410364,4.40104167 L2.13410364,9.08854167 C2.13410364,9.24479167 2.1427842,9.39670139 2.16014531,9.54427083 C2.17750642,9.69184028 2.19486753,9.84375 2.21222864,10 L8.38410364,10 L8.38410364,18.046875 Z" fill-rule="nonzero"></path>
      </g>
      <style>.text__block-icon .fash--icon-theme-security:hover .hover-fill { fill: ;}</style>
    </svg>