<svg class="fash--icon-theme-support " version="1.1" xmlns="http://www.w3.org/2000/svg" xmlns:xlink="http://www.w3.org/1999/xlink" x="0px" y="0px" viewBox="0 0 21 20" height="20" xml:space="preserve">
      <g class="hover-fill" fill="#ffffff">
        <path d="M17.8786909,6 L17.9495798,6 C19.606434,6 20.9495798,7.34314575 20.9495798,9 L20.9495798,11 C20.9495798,12.6568542 19.606434,14 17.9495798,14 L17.8786909,14 C17.3934613,17.3922941 14.4760517,20 10.9495798,20 C10.3972951,20 9.94957983,19.5522847 9.94957983,19 C9.94957983,18.4477153 10.3972951,18 10.9495798,18 C13.7110035,18 15.9495798,15.7614237 15.9495798,13 L15.9495798,7 C15.9495798,4.23857625 13.7110035,2 10.9495798,2 C8.18815608,2 5.94957983,4.23857625 5.94957983,7 L5.94957983,14 L3.94957983,14 C2.29272558,14 0.949579832,12.6568542 0.949579832,11 L0.949579832,9 C0.949579832,7.34314575 2.29272558,6 3.94957983,6 L4.02046869,6 C4.50569835,2.60770586 7.42310792,0 10.9495798,0 C14.4760517,0 17.3934613,2.60770586 17.8786909,6 Z M17.9495798,8 L17.9495798,12 C18.5018645,12 18.9495798,11.5522847 18.9495798,11 L18.9495798,9 C18.9495798,8.4477153 18.5018645,8 17.9495798,8 Z M3.94957983,8 C3.39729508,8 2.94957983,8.4477153 2.94957983,9 L2.94957983,11 C2.94957983,11.5522847 3.39729508,12 3.94957983,12 L3.94957983,8 Z M10.4495798,20 C9.62115273,20 8.94957983,19.3284271 8.94957983,18.5 C8.94957983,17.6715729 9.62115273,17 10.4495798,17 C11.2780069,17 11.9495798,17.6715729 11.9495798,18.5 L11.9495798,19 L10.9495798,20 L10.4495798,20 Z" fill-rule="nonzero"></path>
      </g>
      <style>.text__block-icon .fash--icon-theme-support:hover .hover-fill { fill: ;}</style>
    </svg>