<svg class="fash--icon-theme-planet " version="1.1" xmlns="http://www.w3.org/2000/svg" xmlns:xlink="http://www.w3.org/1999/xlink" x="0px" y="0px" viewBox="0 0 21 20" height="20" xml:space="preserve">
      <g class="hover-fill" fill="#ffffff">
        <path d="M10.6638655,0 C5.14386555,0 0.663865546,4.48 0.663865546,10 C0.663865546,15.52 5.14386555,20 10.6638655,20 C16.1838655,20 20.6638655,15.52 20.6638655,10 C20.6638655,4.48 16.1838655,0 10.6638655,0 Z M2.66386555,10 C2.66386555,9.39 2.74386555,8.79 2.87386555,8.22 L7.65386555,13 L7.65386555,14 C7.65386555,15.1 8.55386555,16 9.65386555,16 L9.65386555,17.93 C5.72386555,17.43 2.66386555,14.07 2.66386555,10 Z M16.5538655,15.4 C16.2938655,14.59 15.5538655,14 14.6538655,14 L13.6538655,14 L13.6538655,11 C13.6538655,10.45 13.2038655,10 12.6538655,10 L6.65386555,10 L6.65386555,8 L8.65386555,8 C9.20386555,8 9.65386555,7.55 9.65386555,7 L9.65386555,5 L11.6538655,5 C12.7538655,5 13.6538655,4.1 13.6538655,3 L13.6538655,2.59 C16.5838655,3.77 18.6638655,6.65 18.6638655,10 C18.6638655,12.08 17.8538655,13.98 16.5538655,15.4 Z" fill-rule="nonzero"></path>
      </g>
      <style>.text__block-icon .fash--icon-theme-planet:hover .hover-fill { fill: ;}</style>
    </svg>