<svg class="fash--apollo-search vib-center" height="16px" version="1.1" xmlns="http://www.w3.org/2000/svg" xmlns:xlink="http://www.w3.org/1999/xlink" x="0px" y="0px" viewBox="0 0 20 20" xml:space="preserve">
      <g class="hover-fill" fill="black">
        <path d="M14.3,12.6h-0.9l-0.3-0.3c1.1-1.3,1.8-3,1.8-4.8c0-4.1-3.3-7.4-7.4-7.4S0,3.3,0,7.4c0,4.1,3.3,7.4,7.4,7.4
        c1.8,0,3.5-0.7,4.8-1.8l0.3,0.3v0.9l5.7,5.7l1.7-1.7L14.3,12.6z M7.4,12.6c-2.8,0-5.1-2.3-5.1-5.1c0-2.8,2.3-5.1,5.1-5.1
        s5.1,2.3,5.1,5.1C12.6,10.3,10.3,12.6,7.4,12.6z"></path>
      </g>
      <style>.slideout__trigger-search .fash--apollo-search:hover .hover-fill { fill: var(--cart-links);}</style>
    </svg>